<svg id="Logo" xmlns="http://www.w3.org/2000/svg" viewBox="0 0 500 155"><defs><style>.cls-1{fill:#fff;}.cls-2{fill:#00415b;}.cls-3{fill:#f62;}.cls-4{fill:#fc0;}</style></defs><path class="cls-1" d="M212.5,151.25A53.75,53.75,0,1,1,266.25,97.5,53.81,53.81,0,0,1,212.5,151.25Zm0-80A26.25,26.25,0,1,0,238.75,97.5,26.29,26.29,0,0,0,212.5,71.25Z"/><path class="cls-2" d="M212.5,47.5a50,50,0,1,1-50,50,50.06,50.06,0,0,1,50-50m0,80a30,30,0,1,0-30-30,30,30,0,0,0,30,30m0-87.5A57.5,57.5,0,1,0,270,97.5,57.56,57.56,0,0,0,212.5,40Zm0,80A22.5,22.5,0,1,1,235,97.5,22.52,22.52,0,0,1,212.5,120Z"/><path class="cls-1" d="M137.5,151.25a13.77,13.77,0,0,1-13.75-13.75v-50a16.25,16.25,0,0,0-32.5,0v50a13.75,13.75,0,0,1-27.5,0v-50a16.25,16.25,0,0,0-32.5,0v50a13.75,13.75,0,0,1-27.5,0v-80a13.75,13.75,0,0,1,24.08-9.07A43.68,43.68,0,0,1,77.5,55.68,43.73,43.73,0,0,1,151.25,87.5v50A13.77,13.77,0,0,1,137.5,151.25Z"/><path class="cls-2" d="M107.5,47.5a40,40,0,0,1,40,40v50a10,10,0,0,1-20,0v-50a20,20,0,0,0-40,0v50a10,10,0,0,1-20,0v-50a20,20,0,0,0-40,0v50a10,10,0,0,1-20,0v-80a10,10,0,0,1,19.12-4.11A39.95,39.95,0,0,1,77.5,61.07a39.92,39.92,0,0,1,30-13.57m0-7.5a47.48,47.48,0,0,0-30,10.7,47.44,47.44,0,0,0-48.94-6.76A17.5,17.5,0,0,0,0,57.5v80a17.5,17.5,0,0,0,35,0v-50a12.5,12.5,0,0,1,25,0v50a17.5,17.5,0,0,0,35,0v-50a12.5,12.5,0,0,1,25,0v50a17.5,17.5,0,0,0,35,0v-50A47.56,47.56,0,0,0,107.5,40Z"/><path class="cls-1" d="M327.5,151.25a53.75,53.75,0,0,1,0-107.5,53.19,53.19,0,0,1,26.25,6.85V17.5a13.75,13.75,0,0,1,27.5,0v80A53.81,53.81,0,0,1,327.5,151.25Zm0-80A26.25,26.25,0,1,0,353.75,97.5,26.29,26.29,0,0,0,327.5,71.25Z"/><path class="cls-2" d="M367.5,7.5a10,10,0,0,1,10,10v80a50.06,50.06,0,1,1-20-40v-40a10,10,0,0,1,10-10m-40,120a30,30,0,1,0-30-30,30,30,0,0,0,30,30M367.5,0A17.52,17.52,0,0,0,350,17.5V44.57A57.51,57.51,0,1,0,385,97.5v-80A17.52,17.52,0,0,0,367.5,0Zm-40,120A22.5,22.5,0,1,1,350,97.5,22.52,22.52,0,0,1,327.5,120Z"/><path class="cls-1" d="M442.5,151.25A53.75,53.75,0,1,1,496.25,97.5a13.77,13.77,0,0,1-13.75,13.75H420.14a26.31,26.31,0,0,0,22.36,12.5h30a13.75,13.75,0,0,1,0,27.5Zm22.36-67.5a26.25,26.25,0,0,0-44.72,0Z"/><path class="cls-2" d="M442.5,47.5a50.06,50.06,0,0,1,50,50,10,10,0,0,1-10,10H414.21a30.06,30.06,0,0,0,28.29,20h30a10,10,0,0,1,0,20h-30a50,50,0,0,1,0-100m-28.29,40h56.58a30,30,0,0,0-56.58,0M442.5,40a57.5,57.5,0,0,0,0,115h30a17.5,17.5,0,0,0,0-35h-30a22.49,22.49,0,0,1-14.12-5H482.5A17.52,17.52,0,0,0,500,97.5,57.56,57.56,0,0,0,442.5,40ZM428.38,80a22.44,22.44,0,0,1,28.24,0Z"/><circle class="cls-3" cx="327.5" cy="97.5" r="28.75"/><path class="cls-2" d="M327.5,72.5a25,25,0,1,1-25,25,25,25,0,0,1,25-25m0-7.5A32.5,32.5,0,1,0,360,97.5,32.54,32.54,0,0,0,327.5,65Z"/><path class="cls-4" d="M212.5,126.25a28.75,28.75,0,0,1,0-57.5q.66,0,1.32,0l.36,0,.94.07.52,0,.58.08A28.84,28.84,0,0,1,239,86.25h14V75.08a3.74,3.74,0,0,1,3.75-3.75,3.72,3.72,0,0,1,1.95.55L295.45,94.3a3.74,3.74,0,0,1,0,6.4l-36.81,22.42a3.81,3.81,0,0,1-1.95.55,3.74,3.74,0,0,1-3.75-3.75V108.75H239A28.83,28.83,0,0,1,216.26,126l-.62.08-.47,0c-.34,0-.63.06-.93.07l-.42,0Q213.16,126.25,212.5,126.25Z"/><path class="cls-2" d="M212.5,72.5c.39,0,.77,0,1.15,0l.36,0c.26,0,.52,0,.77.06l.45,0,.54.07A25,25,0,0,1,236.35,90h20.34V75.08L293.5,97.5l-36.81,22.42V105H236.35a25,25,0,0,1-20.58,17.28l-.54.07-.45,0c-.25,0-.51,0-.77.06l-.36,0c-.38,0-.76,0-1.15,0a25,25,0,0,1,0-50m0-7.5a32.5,32.5,0,0,0,0,65c.46,0,.95,0,1.49,0l.4,0h.07l1-.08.57-.06.66-.08h.06a32.57,32.57,0,0,0,24.57-17.21h7.86v7.42a7.49,7.49,0,0,0,11.4,6.4l36.81-22.41a7.51,7.51,0,0,0,0-12.82L260.59,68.68a7.49,7.49,0,0,0-11.4,6.4V82.5h-7.86a32.6,32.6,0,0,0-24.59-17.22h0l-.64-.08-.56-.06-1-.08h-.08l-.4,0c-.54,0-1,0-1.49,0Z"/></svg>